<svg id="Layer_1" data-name="Layer 1" xmlns="http://www.w3.org/2000/svg" viewBox="0 0 191.53 67.97"><defs><style>.cls-1{fill:none;stroke:#000;stroke-miterlimit:10;}.cls-2{fill-rule:evenodd;}</style></defs><title>logo_4</title><path d="M160.39,108.24a11.64,11.64,0,0,1-9.11-3.74,11.46,11.46,0,0,1-2.23-9.45,3.5,3.5,0,0,1,3.59-2.91h1a3.42,3.42,0,0,1,3.41,3c.31,3.32,2.86,5.46,6.49,5.46,4.88,0,10.33-4,12.15-8.83l.2-.55a.48.48,0,0,0-.1-.51.52.52,0,0,0-.37-.16l-.15,0a6.57,6.57,0,0,1-2,.35,4.6,4.6,0,0,1-3.86-2.08c-2.13-3-2.18-8.48-.13-14.26,0,0,0,0,0-.05.7-1.62,2.16-5.39,1.2-6.86a1.43,1.43,0,0,0-1.26-.64c-2.57,0-4.51,5.07-5.24,7.3l0,.07c-3.34,8.8-11,16.52-16.3,16.52a4.57,4.57,0,0,1-3.84-2.06c-2.12-3-2.2-8.39-.2-14.11.36-.9,2.14-5.56,1-7.24a1.46,1.46,0,0,0-1.27-.65c-2.56,0-3.23,2-4.34,5.21-.19.57-.4,1.17-.63,1.83l-5.44,14.93a3.44,3.44,0,0,1-3.23,2.27h-.21a3.45,3.45,0,0,1-3.23-4.62l4.46-12.24c.29-.8.56-1.51.81-2.16.89-2.3,1.43-3.69.84-4.55a2,2,0,0,0-1.74-.67c-2.91,0-4.91,6.34-5.12,7.06L120,88.87a3.44,3.44,0,0,1-3.23,2.27h-.22a3.45,3.45,0,0,1-3.24-4.61l4.35-12c1.4-3.8,1.75-6,1.1-6.94a1.16,1.16,0,0,0-1-.51c-2.86,0-5.91,6.94-6.25,7.73C107.31,84.32,101,91,96.21,91a4.57,4.57,0,0,1-3.83-2c-2.1-2.94-2.2-8.29-.27-14a.31.31,0,0,0,0-.13c1.22-3.36,2-5.64,1.19-6.77a1.47,1.47,0,0,0-1.25-.64h-.19c-2.48,0-3.19,2-4.37,5.35l-.11.32a.19.19,0,0,0,0,.08L82,88a3.44,3.44,0,0,1-3.23,2.27h-.21a3.44,3.44,0,0,1-3.23-4.62l3.83-10.52c.41-1,2.41-6.19,1.38-7.72a1.16,1.16,0,0,0-1-.52c-2.59,0-5.19,5.17-5.92,6.76l-.12.23c-6,10.94-11.4,16.73-15.48,16.73a4.47,4.47,0,0,1-3.57-1.71A4.33,4.33,0,0,0,49,87.84a22.25,22.25,0,0,1-10.42,2.87c-4.13,0-7.52-1.52-9.53-4.28-2.17-3-2.59-7.05-1.17-11.48a.55.55,0,0,0,0-.18L34.13,57.6c.26-.72.52-1.38.75-2,.89-2.31,1.43-3.7.84-4.56A2,2,0,0,0,34,50.4c-2.59,0-5.52,5.55-6.36,7.24-.05.1-.09.2-.13.3-3.61,9.23-10.07,16.18-15,16.18a4.58,4.58,0,0,1-3.7-1.87c-1.95-2.52-2.33-7-1-12.09.35-1.37,5.93-10.14,6.61-10.79a.45.45,0,0,1,.26-.07c.37,0,.9.27.9.7a105.27,105.27,0,0,1-3,11.84,5,5,0,0,0,.31,4.54A2.62,2.62,0,0,0,15,67.5c2.77,0,6.7-8.58,7.46-10.3,3.52-9.09,10-15.94,15-15.94a4.58,4.58,0,0,1,3.83,2.05c2.1,2.94,2.21,8.29.27,14L35.71,73.94a6.49,6.49,0,0,0,.46,6A6.87,6.87,0,0,0,42,82.5a13,13,0,0,0,11.84-8.22L65,43.7a3.44,3.44,0,0,1,3.23-2.26h.22a3.44,3.44,0,0,1,3.23,4.61L61.5,73.93c-.31.87-.61,1.65-.88,2.34-.89,2.3-1.43,3.68-.84,4.54a2,2,0,0,0,1.75.67c2.76,0,7.08-8.55,7.92-10.26,3.94-8.56,8.9-13.46,13.6-13.46A4.44,4.44,0,0,1,86.21,59a4.13,4.13,0,0,0,2.89,1.13,4.8,4.8,0,0,0,2.35-.62,8.74,8.74,0,0,1,4.13-1.26,4.58,4.58,0,0,1,3.83,2c2.1,2.93,2.2,8.28.27,14a.27.27,0,0,0,0,.12c-.65,1.84-2,5.89-1.11,7.08a1,1,0,0,0,.81.42,1.54,1.54,0,0,0,.57-.12c3.4-1.38,6.4-7.31,6.53-7.57,4.4-9.9,10.23-16.29,14.86-16.29a4.35,4.35,0,0,1,2.81,1,4.79,4.79,0,0,0,3,1.05,4.59,4.59,0,0,0,2.37-.65,9.45,9.45,0,0,1,4.62-1.55,4.38,4.38,0,0,1,3.1,1.22A4.13,4.13,0,0,0,140,60.06a4.65,4.65,0,0,0,2.34-.64,9.4,9.4,0,0,1,4.56-1.49,4.71,4.71,0,0,1,3.94,2.15c2.16,3.05,2.24,8.49.22,14.2,0,0,0,0,0,0-1.47,2.73-3,6.23-2.22,7.59a1.26,1.26,0,0,0,1.15.6c2.88,0,5.94-7,6.34-7.94l.06-.1c3.34-8.81,11-16.53,16.3-16.53A4.58,4.58,0,0,1,176.54,60c2.12,3,2.2,8.38.21,14.11,0,.09-.07.19-.11.28-.67,1.55-2.13,5.33-1.17,6.8a1.43,1.43,0,0,0,1.25.63c2.06,0,2.95-1.21,3.79-3.31l1.31-3.77.18-.52c1.75-4.94,3.14-8.85,6.34-11.86.07,0,2.21-1.31,3.49-2.08l1.45-.87a4.34,4.34,0,0,1,2.39-.77c.88,0,1.83.36,1.83,1.36,0,1.61-1.56,3.44-4.78,5.58-2.15,1.44-4.18,8.21-4.2,8.28s-4.83,16.33-5.23,17.71l0,.06C179.79,100.79,169.53,108.24,160.39,108.24Z" transform="translate(-6.47 -40.76)"/><path d="M37.49,41.76a4.07,4.07,0,0,1,3.43,1.84c2,2.81,2.08,8,.2,13.5L35.24,73.77a.25.25,0,0,1,0,.07,6.94,6.94,0,0,0,.54,6.39A7.32,7.32,0,0,0,42,83a13.55,13.55,0,0,0,12.28-8.48l0-.07L65.44,43.87a3,3,0,0,1,2.76-1.94h.22a3,3,0,0,1,2.76,4L61,73.77c-.31.86-.61,1.63-.88,2.32-.95,2.45-1.52,3.93-.78,5a2.52,2.52,0,0,0,2.16.89c2.9,0,6.82-7.37,8.38-10.56,3.79-8.24,8.71-13.16,13.14-13.16a3.92,3.92,0,0,1,2.81,1.13,4.63,4.63,0,0,0,3.24,1.27A5.41,5.41,0,0,0,91.69,60a8.37,8.37,0,0,1,3.89-1.2A4,4,0,0,1,99,60.62c2,2.8,2.09,8,.2,13.51a.94.94,0,0,0,0,.16c-1.4,3.95-1.75,6.46-1,7.48a1.46,1.46,0,0,0,1.22.64,1.91,1.91,0,0,0,.75-.16c3.58-1.45,6.67-7.54,6.81-7.84,4.25-9.56,10-16,14.4-16a3.9,3.9,0,0,1,2.5.87,5.3,5.3,0,0,0,3.29,1.16,5.06,5.06,0,0,0,2.63-.73,9,9,0,0,1,4.36-1.47,4,4,0,0,1,2.76,1.08A4.62,4.62,0,0,0,140,60.56a5.07,5.07,0,0,0,2.59-.71,8.89,8.89,0,0,1,4.31-1.42,4.18,4.18,0,0,1,3.54,1.94c2.06,2.91,2.12,8.16.16,13.71-3.32,6.19-2.48,7.61-2.2,8.07A1.76,1.76,0,0,0,150,83c3.2,0,6.28-7,6.78-8.2a.89.89,0,0,0,.08-.17c3.53-9.27,11.27-16.2,15.84-16.2a4.07,4.07,0,0,1,3.44,1.86c2,2.85,2.07,8.08.14,13.66a2.44,2.44,0,0,1-.1.24c-1.07,2.47-2.13,5.74-1.12,7.27a1.9,1.9,0,0,0,1.67.86c2.58,0,3.51-1.79,4.27-3.67l1.29-3.74.19-.52c1.71-4.85,3.07-8.68,6.13-11.59l3.59-2.15,1.36-.82a3.81,3.81,0,0,1,2.11-.69c.31,0,1.33.06,1.33.86,0,1.41-1.53,3.15-4.55,5.17-2.31,1.53-4.32,8.26-4.41,8.55l-5.22,17.67,0,.06c-3.4,9-13.45,16.29-22.4,16.29a11.17,11.17,0,0,1-8.73-3.56,11,11,0,0,1-2.12-9.05,3,3,0,0,1,3.1-2.49h1a2.91,2.91,0,0,1,2.91,2.58c.34,3.6,3.08,5.92,7,5.92,5.13,0,10.66-4,12.6-9.09l0-.07.19-.55a1,1,0,0,0-.21-1,1,1,0,0,0-.73-.31,1,1,0,0,0-.3,0,6.51,6.51,0,0,1-1.89.32,4,4,0,0,1-3.45-1.87c-2-2.88-2.06-8.17-.07-13.81v0c1.09-2.51,2.15-5.79,1.16-7.31a1.94,1.94,0,0,0-1.68-.87c-2.78,0-4.75,4.7-5.7,7.59,0,0,0,.07,0,.11-3.53,9.27-11.27,16.19-15.84,16.19a4.06,4.06,0,0,1-3.44-1.85c-2-2.85-2.07-8.08-.15-13.62.54-1.34,2.21-5.88,1-7.72a2,2,0,0,0-1.68-.87c-2.91,0-3.67,2.21-4.81,5.55-.19.56-.4,1.17-.63,1.82v0L132.41,88.7a3,3,0,0,1-2.76,1.94h-.21a2.94,2.94,0,0,1-2.76-4l4.46-12.24c.28-.79.56-1.51.81-2.15,1-2.45,1.52-3.94.78-5a2.52,2.52,0,0,0-2.15-.89c-3.18,0-5.2,6.09-5.59,7.39L119.56,88.7a3,3,0,0,1-2.76,1.94h-.22a2.94,2.94,0,0,1-2.77-3.94l4.31-11.91,0-.1c1.5-4.08,1.81-6.29,1-7.4a1.67,1.67,0,0,0-1.41-.72c-3,0-5.9,6.15-6.7,8-4.09,9.2-10.35,15.87-14.88,15.87a4,4,0,0,1-3.42-1.83c-2-2.81-2.09-8-.2-13.51,0-.06,0-.11,0-.16,1.29-3.58,2-5.86,1.12-7.18a2,2,0,0,0-1.65-.86h-.21c-2.84,0-3.63,2.27-4.84,5.69l-.11.31,0,.11-5.4,14.82a3,3,0,0,1-2.76,1.94h-.21a2.91,2.91,0,0,1-2.41-1.26,2.87,2.87,0,0,1-.35-2.69L79.6,75.34c.77-1.92,2.45-6.55,1.33-8.2a1.63,1.63,0,0,0-1.4-.74c-2.81,0-5.4,4.93-6.38,7a1.86,1.86,0,0,1-.1.2C65.53,87.26,60.72,90.12,58,90.12a4,4,0,0,1-3.19-1.53,4.9,4.9,0,0,0-3.76-1.79,4.82,4.82,0,0,0-2.31.6,21.82,21.82,0,0,1-10.19,2.81c-4,0-7.21-1.45-9.13-4.08-2.07-2.84-2.46-6.76-1.1-11a.87.87,0,0,0,.05-.22l6.22-17.1c.26-.72.52-1.38.75-2,.95-2.46,1.52-3.94.78-5A2.52,2.52,0,0,0,34,49.9c-2.7,0-5.42,4.71-6.81,7.52a3.49,3.49,0,0,0-.15.34c-3.47,8.89-9.87,15.86-14.57,15.86A4,4,0,0,1,9.15,72C7.32,69.58,7,65.11,8.21,60.29c.31-1.21,5.56-9.47,6.41-10.49.19,0,.38.15.38.2a106.4,106.4,0,0,1-2.95,11.68,5.54,5.54,0,0,0,.38,5A3.1,3.1,0,0,0,15,68c2.92,0,6.51-7.41,7.93-10.64,3.44-8.89,9.7-15.6,14.56-15.6m0-1c-5.29,0-11.91,7-15.49,16.24,0,0-4.41,10-7,10-1.82,0-3-2.12-2-5a103.39,103.39,0,0,0,3-12,1.35,1.35,0,0,0-1.4-1.2.89.89,0,0,0-.6.2c-.58.51-6.36,9.52-6.76,11-2.14,8.26.32,14.58,5.21,14.58,5.27,0,11.91-7.3,15.5-16.5a1.92,1.92,0,0,1,.12-.25c.48-1,3.53-7,5.91-7,2.62,0,1.32,2.05-.32,6.53h0L27.34,74.79h0c-2.91,9.13,1.94,16.42,11.18,16.42a22.7,22.7,0,0,0,10.66-2.93,3.83,3.83,0,0,1,4.84,1A5,5,0,0,0,58,91.12c5.27,0,11.22-8.48,15.92-17a2.1,2.1,0,0,0,.13-.26c.43-.92,3.1-6.47,5.47-6.47,2.19,0-.86,7.56-.86,7.56h0L74.84,85.49a3.94,3.94,0,0,0,3.7,5.29h.21a3.94,3.94,0,0,0,3.7-2.59l5.44-14.94h0c1.23-3.49,1.81-5.34,4-5.34h.17C94,68,93,71,91.62,74.79h0c-3.16,9.26-.73,16.67,4.57,16.67S108,84,112,75c0,0,3.17-7.43,5.79-7.43,2,0-.2,5.78-.61,6.88l-4.31,11.91a3.94,3.94,0,0,0,3.71,5.28h.22a4,4,0,0,0,3.7-2.6l5.44-14.93s2-6.71,4.64-6.71,1.29,2.1-.38,6.71h0l-4.46,12.24a3.94,3.94,0,0,0,3.7,5.29h.21a3.93,3.93,0,0,0,3.7-2.6l5.44-14.93h0c1.58-4.4,1.92-6.71,4.5-6.71s-.2,7.22-.2,7.22c-3.25,9.34-.82,16.84,4.51,16.84s13.22-7.5,16.77-16.84h0c.05-.12,2.18-7.05,4.8-7.05s-.42,6.82-.44,6.88h0c-3.34,9.42-.91,17,4.46,17a7.34,7.34,0,0,0,2.19-.37l-.19.55h0c-1.76,4.7-7,8.5-11.68,8.5-3.47,0-5.71-2-6-5a3.91,3.91,0,0,0-3.91-3.49h-1A4,4,0,0,0,148.55,95c-1.27,7.85,3.52,13.77,11.84,13.77,9.4,0,19.79-7.56,23.34-16.93h0L189,74c.2-.68,2.14-6.76,4-8,3-2,5-4,5-6,0-1.2-1-1.86-2.33-1.86A4.84,4.84,0,0,0,193,59s-5,3-5,3c-3.41,3.2-4.82,7.4-6.65,12.58l-1.3,3.74c-.8,2-1.57,3-3.32,3-2.44,0,0-5.77.37-6.74l.12-.31c3.25-9.33.81-16.84-4.52-16.84s-13.22,7.51-16.77,16.85h0c0,.12-3.3,7.72-5.92,7.72s1.54-7.49,1.56-7.55h0c3.34-9.42.73-17-4.63-17A9.89,9.89,0,0,0,142.1,59a4.1,4.1,0,0,1-2.08.57,3.63,3.63,0,0,1-2.49-1,4.91,4.91,0,0,0-3.44-1.35,9.78,9.78,0,0,0-4.87,1.62,4.15,4.15,0,0,1-2.12.58,4.24,4.24,0,0,1-2.66-.94,4.92,4.92,0,0,0-3.13-1.09C116,57.43,110,65,106,74c0,0-3,6-6.27,7.32a1,1,0,0,1-.38.09c-1.7,0,.76-6.8.82-7h0c3.16-9.26.73-16.67-4.57-16.67a9.26,9.26,0,0,0-4.37,1.33,4.43,4.43,0,0,1-2.11.55,3.63,3.63,0,0,1-2.54-1,4.93,4.93,0,0,0-3.51-1.41c-5.3,0-10.39,5.81-14,13.74,0,0-4.89,10-7.47,10s-1.26-2.14.44-6.87L72.12,46.22a3.94,3.94,0,0,0-3.7-5.29H68.2a4,4,0,0,0-3.7,2.6L53.37,74.11h0A12.54,12.54,0,0,1,42,82c-4.72,0-7.48-3.19-5.81-7.89h0l5.87-16.68c3.16-9.25.73-16.67-4.57-16.67Z" transform="translate(-6.47 -40.76)"/><path class="cls-1" d="M.5,82.5" transform="translate(-6.47 -40.76)"/><path class="cls-2" d="M.5,82.5" transform="translate(-6.47 -40.76)"/><path class="cls-1" d="M1,67.5" transform="translate(-6.47 -40.76)"/><path class="cls-2" d="M1,67.5" transform="translate(-6.47 -40.76)"/></svg>