<svg version="1.1" xmlns="http://www.w3.org/2000/svg" xmlns:xlink="http://www.w3.org/1999/xlink" width="191.53px" height="67.97px" viewBox="0,0,256,90.84375"><g fill="none" fill-rule="none" stroke="none" stroke-width="1" stroke-linecap="butt" stroke-linejoin="miter" stroke-miterlimit="10" stroke-dasharray="" stroke-dashoffset="0" font-family="none" font-weight="none" font-size="none" text-anchor="none" style="mix-blend-mode: normal"><g transform="translate(3.98977,-0.02939) scale(1.33661,1.33661)"><path transform="translate(-6.47,-40.76)" d="M160.39,108.24c-3.44044,0.16256 -6.77623,-1.20691 -9.11,-3.74c-2.10697,-2.66391 -2.92375,-6.12518 -2.23,-9.45c0.29518,-1.73444 1.83203,-2.98018 3.59,-2.91h1c1.73245,-0.00805 3.19726,1.28064 3.41,3c0.31,3.32 2.86,5.46 6.49,5.46c4.88,0 10.33,-4 12.15,-8.83l0.2,-0.55c0.06954,-0.1749 0.03044,-0.37431 -0.1,-0.51c-0.0968,-0.10091 -0.23017,-0.15859 -0.37,-0.16h-0.15c-0.6445,0.2196 -1.31922,0.33767 -2,0.35c-1.5556,0.00395 -3.0078,-0.77859 -3.86,-2.08c-2.13,-3 -2.18,-8.48 -0.13,-14.26c0,0 0,0 0,-0.05c0.7,-1.62 2.16,-5.39 1.2,-6.86c-0.27787,-0.42046 -0.75656,-0.66361 -1.26,-0.64c-2.57,0 -4.51,5.07 -5.24,7.3v0.07c-3.34,8.8 -11,16.52 -16.3,16.52c-1.54605,0.00709 -2.99086,-0.76799 -3.84,-2.06c-2.12,-3 -2.2,-8.39 -0.2,-14.11c0.36,-0.9 2.14,-5.56 1,-7.24c-0.28144,-0.42283 -0.76242,-0.669 -1.27,-0.65c-2.56,0 -3.23,2 -4.34,5.21c-0.19,0.57 -0.4,1.17 -0.63,1.83l-5.44,14.93c-0.49212,1.36066 -1.78308,2.26793 -3.23,2.27h-0.21c-1.12099,-0.00505 -2.16964,-0.55443 -2.81196,-1.47316c-0.64232,-0.91873 -0.79822,-2.09227 -0.41804,-3.14684l4.46,-12.24c0.29,-0.8 0.56,-1.51 0.81,-2.16c0.89,-2.3 1.43,-3.69 0.84,-4.55c-0.43405,-0.49657 -1.08501,-0.74722 -1.74,-0.67c-2.91,0 -4.91,6.34 -5.12,7.06l-5.54,14.97c-0.49212,1.36066 -1.78308,2.26793 -3.23,2.27h-0.22c-1.12025,-0.00297 -2.16932,-0.54967 -2.81347,-1.4662c-0.64416,-0.91653 -0.8032,-2.08877 -0.42653,-3.1438l4.35,-12c1.4,-3.8 1.75,-6 1.1,-6.94c-0.22341,-0.3307 -0.60113,-0.52334 -1,-0.51c-2.86,0 -5.91,6.94 -6.25,7.73c-4.2,9.51 -10.51,16.19 -15.3,16.19c-1.5311,0.01706 -2.96901,-0.7338 -3.83,-2c-2.1,-2.94 -2.2,-8.29 -0.27,-14c0.00919,-0.04285 0.00919,-0.08715 0,-0.13c1.22,-3.36 2,-5.64 1.19,-6.77c-0.28124,-0.41143 -0.75178,-0.65235 -1.25,-0.64h-0.19c-2.48,0 -3.19,2 -4.37,5.35l-0.11,0.32c-0.00568,0.02636 -0.00568,0.05364 0,0.08l-5.38,14.79c-0.49212,1.36066 -1.78308,2.26793 -3.23,2.27h-0.21c-1.12277,-0.00042 -2.17469,-0.54874 -2.81802,-1.46893c-0.64333,-0.92018 -0.79712,-2.09642 -0.41198,-3.15107l3.83,-10.52c0.41,-1 2.41,-6.19 1.38,-7.72c-0.22106,-0.33451 -0.5992,-0.53114 -1,-0.52c-2.59,0 -5.19,5.17 -5.92,6.76l-0.12,0.23c-6,10.94 -11.4,16.73 -15.48,16.73c-1.39128,0.01668 -2.71099,-0.61545 -3.57,-1.71c-1.32129,-1.6248 -3.61604,-2.07112 -5.45,-1.06c-3.18466,1.79854 -6.76357,2.78429 -10.42,2.87c-4.13,0 -7.52,-1.52 -9.53,-4.28c-2.17,-3 -2.59,-7.05 -1.17,-11.48c0.00988,-0.05959 0.00988,-0.12041 0,-0.18l6.25,-17.17c0.26,-0.72 0.52,-1.38 0.75,-2c0.89,-2.31 1.43,-3.7 0.84,-4.56c-0.43584,-0.47931 -1.07685,-0.71783 -1.72,-0.64c-2.59,0 -5.52,5.55 -6.36,7.24c-0.05,0.1 -0.09,0.2 -0.13,0.3c-3.61,9.23 -10.07,16.18 -15,16.18c-1.461,0.00249 -2.83552,-0.6922 -3.7,-1.87c-1.95,-2.52 -2.33,-7 -1,-12.09c0.35,-1.37 5.93,-10.14 6.61,-10.79c0.07749,-0.04932 0.16822,-0.07375 0.26,-0.07c0.37,0 0.9,0.27 0.9,0.7c-0.77,4.0014 -1.77169,7.95472 -3,11.84c-0.63121,1.47539 -0.5159,3.1641 0.31,4.54c0.48232,0.69091 1.26749,1.10768 2.11,1.12c2.77,0 6.7,-8.58 7.46,-10.3c3.52,-9.09 10,-15.94 15,-15.94c1.54014,-0.0041 2.97922,0.76616 3.83,2.05c2.1,2.94 2.21,8.29 0.27,14l-5.85,16.63c-0.83917,1.95454 -0.6673,4.19623 0.46,6c1.40671,1.75675 3.58466,2.71311 5.83,2.56c5.24341,-0.10096 9.91265,-3.34262 11.84,-8.22l11.16,-30.58c0.49545,-1.35672 1.78565,-2.25946 3.23,-2.26h0.22c1.12025,0.0016 2.16956,0.54859 2.81238,1.46606c0.64282,0.91747 0.79864,2.09048 0.41762,3.14394l-10.18,27.88c-0.31,0.87 -0.61,1.65 -0.88,2.34c-0.89,2.3 -1.43,3.68 -0.84,4.54c0.43615,0.4997 1.09166,0.75066 1.75,0.67c2.76,0 7.08,-8.55 7.92,-10.26c3.94,-8.56 8.9,-13.46 13.6,-13.46c1.176,-0.02154 2.31249,0.42443 3.16,1.24c0.77983,0.738 1.81641,1.14331 2.89,1.13c0.82355,-0.00165 1.63283,-0.21516 2.35,-0.62c1.24962,-0.75881 2.66962,-1.19203 4.13,-1.26c1.53067,-0.01526 2.96778,0.73518 3.83,2c2.1,2.93 2.2,8.28 0.27,14c-0.009,0.03949 -0.009,0.08051 0,0.12c-0.65,1.84 -2,5.89 -1.11,7.08c0.18668,0.2622 0.48814,0.41851 0.81,0.42c0.1959,-0.00338 0.38936,-0.0441 0.57,-0.12c3.4,-1.38 6.4,-7.31 6.53,-7.57c4.4,-9.9 10.23,-16.29 14.86,-16.29c1.02525,-0.00824 2.02045,0.34593 2.81,1c0.85135,0.68125 1.90964,1.05165 3,1.05c0.8344,0.00278 1.65377,-0.22194 2.37,-0.65c1.37801,-0.91168 2.97098,-1.44611 4.62,-1.55c1.15369,-0.01752 2.26769,0.42089 3.1,1.22c0.75169,0.69635 1.7354,1.08841 2.76,1.1c0.82289,-0.00252 1.63037,-0.22337 2.34,-0.64c1.36555,-0.8827 2.93671,-1.39608 4.56,-1.49c1.59233,0.00458 3.07453,0.8134 3.94,2.15c2.16,3.05 2.24,8.49 0.22,14.2v0c-1.47,2.73 -3,6.23 -2.22,7.59c0.24304,0.39711 0.68526,0.62783 1.15,0.6c2.88,0 5.94,-7 6.34,-7.94l0.06,-0.1c3.34,-8.81 11,-16.53 16.3,-16.53c1.55684,0.00015 3.00699,0.79115 3.85,2.1c2.12,3 2.2,8.38 0.21,14.11c0,0.09 -0.07,0.19 -0.11,0.28c-0.67,1.55 -2.13,5.33 -1.17,6.8c0.27838,0.41352 0.75201,0.65223 1.25,0.63c2.06,0 2.95,-1.21 3.79,-3.31l1.31,-3.77l0.18,-0.52c1.75,-4.94 3.14,-8.85 6.34,-11.86c0.07,0 2.21,-1.31 3.49,-2.08l1.45,-0.87c0.70339,-0.48656 1.53487,-0.75444 2.39,-0.77c0.88,0 1.83,0.36 1.83,1.36c0,1.61 -1.56,3.44 -4.78,5.58c-2.15,1.44 -4.18,8.21 -4.2,8.28c-0.02,0.07 -4.83,16.33 -5.23,17.71v0.06c-3.5,9.16 -13.76,16.61 -22.9,16.61z" fill="#ffffff" fill-rule="nonzero" stroke="none"></path><path transform="translate(-6.47,-40.76)" d="M37.49,41.76c1.38152,-0.00857 2.67306,0.68427 3.43,1.84c2,2.81 2.08,8 0.2,13.5l-5.88,16.67c0.00328,0.02322 0.00328,0.04678 0,0.07c-0.87389,2.09044 -0.6723,4.47585 0.54,6.39c1.49158,1.89011 3.81728,2.92583 6.22,2.77c5.4214,-0.11484 10.25224,-3.4508 12.28,-8.48v-0.07l11.16,-30.58c0.43482,-1.1517 1.5291,-1.92087 2.76,-1.94h0.22c0.96178,0.02186 1.85473,0.50363 2.40109,1.29545c0.54636,0.79182 0.67984,1.79763 0.35891,2.70455l-10.18,27.84c-0.31,0.86 -0.61,1.63 -0.88,2.32c-0.95,2.45 -1.52,3.93 -0.78,5c0.53069,0.63264 1.33767,0.96515 2.16,0.89c2.9,0 6.82,-7.37 8.38,-10.56c3.79,-8.24 8.71,-13.16 13.14,-13.16c1.05023,-0.015 2.06255,0.39209 2.81,1.13c0.87376,0.82855 2.03594,1.28409 3.24,1.27c0.9151,0.00513 1.81654,-0.22195 2.62,-0.66c1.17815,-0.71404 2.51434,-1.12623 3.89,-1.2c1.37734,-0.0227 2.66944,0.66491 3.42,1.82c2,2.8 2.09,8 0.2,13.51c-0.00455,0.05324 -0.00455,0.10676 0,0.16c-1.4,3.95 -1.75,6.46 -1,7.48c0.27412,0.40385 0.73192,0.64401 1.22,0.64c0.25825,-0.00208 0.51339,-0.05651 0.75,-0.16c3.58,-1.45 6.67,-7.54 6.81,-7.84c4.25,-9.56 10,-16 14.4,-16c0.90928,-0.01032 1.79358,0.29742 2.5,0.87c0.93435,0.74685 2.09385,1.15567 3.29,1.16c0.92698,0.00217 1.83675,-0.25035 2.63,-0.73c1.30141,-0.8595 2.80385,-1.36605 4.36,-1.47c1.02435,-0.00669 2.01223,0.37987 2.76,1.08c0.83754,0.78071 1.93515,1.22261 3.08,1.24c0.91146,0.00044 1.80618,-0.24483 2.59,-0.71c1.28964,-0.83821 2.77468,-1.32748 4.31,-1.42c1.43474,-0.00373 2.77114,0.72865 3.54,1.94c2.06,2.91 2.12,8.16 0.16,13.71c-3.32,6.19 -2.48,7.61 -2.2,8.07c0.33534,0.55717 0.95059,0.88402 1.6,0.85c3.2,0 6.28,-7 6.78,-8.2c0.03259,-0.05369 0.05941,-0.11067 0.08,-0.17c3.53,-9.27 11.27,-16.2 15.84,-16.2c1.38892,-0.00759 2.68583,0.69364 3.44,1.86c2,2.85 2.07,8.08 0.14,13.66c-0.02904,0.08172 -0.06243,0.16183 -0.1,0.24c-1.07,2.47 -2.13,5.74 -1.12,7.27c0.36612,0.56104 1.00065,0.8878 1.67,0.86c2.58,0 3.51,-1.79 4.27,-3.67l1.29,-3.74l0.19,-0.52c1.71,-4.85 3.07,-8.68 6.13,-11.59l3.59,-2.15l1.36,-0.82c0.61925,-0.43435 1.35377,-0.67455 2.11,-0.69c0.31,0 1.33,0.06 1.33,0.86c0,1.41 -1.53,3.15 -4.55,5.17c-2.31,1.53 -4.32,8.26 -4.41,8.55l-5.22,17.67v0.06c-3.4,9 -13.45,16.29 -22.4,16.29c-3.29276,0.15973 -6.48791,-1.14322 -8.73,-3.56c-2.0091,-2.55526 -2.78519,-5.86827 -2.12,-9.05c0.25594,-1.49394 1.58602,-2.56229 3.1,-2.49h1c1.48663,-0.00959 2.74144,1.10293 2.91,2.58c0.34,3.6 3.08,5.92 7,5.92c5.13,0 10.66,-4 12.6,-9.09v-0.07l0.19,-0.55c0.11844,-0.34664 0.03787,-0.73029 -0.21,-1c-0.1902,-0.19953 -0.45434,-0.3117 -0.73,-0.31c-0.09943,-0.01509 -0.20057,-0.01509 -0.3,0c-0.61076,0.19934 -1.24766,0.30718 -1.89,0.32c-1.39776,0.02235 -2.70578,-0.68663 -3.45,-1.87c-2,-2.88 -2.06,-8.17 -0.07,-13.81v0c1.09,-2.51 2.15,-5.79 1.16,-7.31c-0.37106,-0.56191 -1.00696,-0.89122 -1.68,-0.87c-2.78,0 -4.75,4.7 -5.7,7.59c0,0 0,0.07 0,0.11c-3.53,9.27 -11.27,16.19 -15.84,16.19c-1.38745,0.01165 -2.68478,-0.68604 -3.44,-1.85c-2,-2.85 -2.07,-8.08 -0.15,-13.62c0.54,-1.34 2.21,-5.88 1,-7.72c-0.37876,-0.55328 -1.00957,-0.87995 -1.68,-0.87c-2.91,0 -3.67,2.21 -4.81,5.55c-0.19,0.56 -0.4,1.17 -0.63,1.82v0l-5.54,14.92c-0.43482,1.1517 -1.5291,1.92087 -2.76,1.94h-0.21c-0.97263,0.00588 -1.88522,-0.46968 -2.43761,-1.27025c-0.55239,-0.80057 -0.67309,-1.82253 -0.32239,-2.72975l4.46,-12.24c0.28,-0.79 0.56,-1.51 0.81,-2.15c1,-2.45 1.52,-3.94 0.78,-5c-0.5286,-0.62959 -1.33107,-0.96178 -2.15,-0.89c-3.18,0 -5.2,6.09 -5.59,7.39l-5.43,14.95c-0.43482,1.1517 -1.5291,1.92087 -2.76,1.94h-0.22c-0.95911,0.00173 -1.85877,-0.46449 -2.41039,-1.2491c-0.55162,-0.78461 -0.68584,-1.78897 -0.35961,-2.6909l4.31,-11.91v-0.1c1.5,-4.08 1.81,-6.29 1,-7.4c-0.31915,-0.46169 -0.84887,-0.73219 -1.41,-0.72c-3,0 -5.9,6.15 -6.7,8c-4.09,9.2 -10.35,15.87 -14.88,15.87c-1.37928,0.02052 -2.67181,-0.6711 -3.42,-1.83c-2,-2.81 -2.09,-8 -0.2,-13.51c0,-0.06 0,-0.11 0,-0.16c1.29,-3.58 2,-5.86 1.12,-7.18c-0.37505,-0.54063 -0.99202,-0.86221 -1.65,-0.86h-0.21c-2.84,0 -3.63,2.27 -4.84,5.69l-0.11,0.31v0.11l-5.4,14.82c-0.43482,1.1517 -1.5291,1.92087 -2.76,1.94h-0.21c-0.96225,0.00429 -1.8644,-0.46737 -2.41,-1.26c-0.5598,-0.78147 -0.69119,-1.7913 -0.35,-2.69l3.91,-10.48c0.77,-1.92 2.45,-6.55 1.33,-8.2c-0.30745,-0.47201 -0.83682,-0.75182 -1.4,-0.74c-2.81,0 -5.4,4.93 -6.38,7c-0.02929,0.06861 -0.06269,0.1354 -0.1,0.2c-7.52,13.66 -12.33,16.52 -15.05,16.52c-1.24334,0.01353 -2.42227,-0.55191 -3.19,-1.53c-0.92483,-1.12606 -2.30286,-1.78209 -3.76,-1.79c-0.80812,0.00319 -1.60247,0.20951 -2.31,0.6c-3.11502,1.75767 -6.61436,2.72265 -10.19,2.81c-4,0 -7.21,-1.45 -9.13,-4.08c-2.07,-2.84 -2.46,-6.76 -1.1,-11c0.02614,-0.07085 0.04295,-0.14481 0.05,-0.22l6.22,-17.1c0.26,-0.72 0.52,-1.38 0.75,-2c0.95,-2.46 1.52,-3.94 0.78,-5c-0.51817,-0.62799 -1.30782,-0.96695 -2.12,-0.91c-2.7,0 -5.42,4.71 -6.81,7.52c-0.056,0.11059 -0.10607,0.22408 -0.15,0.34c-3.47,8.89 -9.87,15.86 -14.57,15.86c-1.30468,0.03396 -2.54389,-0.57071 -3.32,-1.62c-1.83,-2.42 -2.15,-6.89 -0.94,-11.71c0.31,-1.21 5.56,-9.47 6.41,-10.49c0.19,0 0.38,0.15 0.38,0.2c-0.76196,3.94592 -1.74687,7.8455 -2.95,11.68c-0.67803,1.63188 -0.53686,3.48933 0.38,5c0.58673,0.83671 1.54813,1.3305 2.57,1.32c2.92,0 6.51,-7.41 7.93,-10.64c3.44,-8.89 9.7,-15.6 14.56,-15.6M37.49,40.76c-5.29,0 -11.91,7 -15.49,16.24c0,0 -4.41,10 -7,10c-1.82,0 -3,-2.12 -2,-5c1.23859,-3.93654 2.24039,-7.94371 3,-12c-0.07827,-0.70604 -0.6903,-1.23063 -1.4,-1.2c-0.21774,-0.00904 -0.43123,0.06212 -0.6,0.2c-0.58,0.51 -6.36,9.52 -6.76,11c-2.14,8.26 0.32,14.58 5.21,14.58c5.27,0 11.91,-7.3 15.5,-16.5c0.03392,-0.08612 0.07403,-0.16967 0.12,-0.25c0.48,-1 3.53,-7 5.91,-7c2.62,0 1.32,2.05 -0.32,6.53v0l-6.32,17.43v0c-2.91,9.13 1.94,16.42 11.18,16.42c3.7405,-0.08325 7.40243,-1.08976 10.66,-2.93c1.64134,-0.89143 3.68633,-0.46891 4.84,1c0.97265,1.19336 2.44081,1.87211 3.98,1.84c5.27,0 11.22,-8.48 15.92,-17c0.04929,-0.08356 0.09272,-0.17043 0.13,-0.26c0.43,-0.92 3.1,-6.47 5.47,-6.47c2.19,0 -0.86,7.56 -0.86,7.56v0l-3.82,10.54c-0.44052,1.20785 -0.26402,2.55467 0.47287,3.60821c0.73689,1.05355 1.94146,1.6813 3.22713,1.68179h0.21c1.65487,-0.00063 3.13298,-1.03531 3.7,-2.59l5.44,-14.94v0c1.23,-3.49 1.81,-5.34 4,-5.34h0.17c1.94,0.09 0.94,3.09 -0.44,6.88v0c-3.16,9.26 -0.73,16.67 4.57,16.67c5.3,0 11.81,-7.46 15.81,-16.46c0,0 3.17,-7.43 5.79,-7.43c2,0 -0.2,5.78 -0.61,6.88l-4.31,11.91c-0.43701,1.20833 -0.25735,2.55384 0.48138,3.60518c0.73872,1.05134 1.9437,1.67641 3.22862,1.67482h0.22c1.6519,-0.01945 3.12191,-1.05243 3.7,-2.6l5.44,-14.93c0,0 2,-6.71 4.64,-6.71c2.64,0 1.29,2.1 -0.38,6.71v0l-4.46,12.24c-0.44052,1.20785 -0.26402,2.55467 0.47287,3.60821c0.73689,1.05355 1.94146,1.6813 3.22713,1.68179h0.21c1.65837,0.0008 3.13877,-1.03948 3.7,-2.6l5.44,-14.93v0c1.58,-4.4 1.92,-6.71 4.5,-6.71c2.58,0 -0.2,7.22 -0.2,7.22c-3.25,9.34 -0.82,16.84 4.51,16.84c5.33,0 13.22,-7.5 16.77,-16.84v0c0.05,-0.12 2.18,-7.05 4.8,-7.05c2.62,0 -0.42,6.82 -0.44,6.88v0c-3.34,9.42 -0.91,17 4.46,17c0.74454,-0.01153 1.48299,-0.13629 2.19,-0.37l-0.19,0.55v0c-1.76,4.7 -7,8.5 -11.68,8.5c-3.47,0 -5.71,-2 -6,-5c-0.2154,-1.99394 -1.90449,-3.5016 -3.91,-3.49h-1c-2.00039,-0.05069 -3.73048,1.38464 -4.05,3.36c-1.27,7.85 3.52,13.77 11.84,13.77c9.4,0 19.79,-7.56 23.34,-16.93v0l5.27,-17.84c0.2,-0.68 2.14,-6.76 4,-8c3,-2 5,-4 5,-6c0,-1.2 -1,-1.86 -2.33,-1.86c-0.95538,0.01682 -1.8844,0.31606 -2.67,0.86l-5,3c-3.41,3.2 -4.82,7.4 -6.65,12.58l-1.3,3.74c-0.8,2 -1.57,3 -3.32,3c-2.44,0 0,-5.77 0.37,-6.74l0.12,-0.31c3.25,-9.33 0.81,-16.84 -4.52,-16.84c-5.33,0 -13.22,7.51 -16.77,16.85v0c0,0.12 -3.3,7.72 -5.92,7.72c-2.62,0 1.54,-7.49 1.56,-7.55v0c3.34,-9.42 0.73,-17 -4.63,-17c-1.72081,0.08625 -3.38922,0.62056 -4.84,1.55c-0.63004,0.37222 -1.34822,0.56903 -2.08,0.57c-0.92726,-0.00307 -1.81819,-0.36087 -2.49,-1c-0.92711,-0.8808 -2.16128,-1.36514 -3.44,-1.35c-1.7386,0.09683 -3.41983,0.65608 -4.87,1.62c-0.6417,0.38035 -1.37405,0.58071 -2.12,0.58c-0.96797,-0.00051 -1.90663,-0.33222 -2.66,-0.94c-0.88587,-0.7144 -1.992,-1.0996 -3.13,-1.09c-5.31,0.04 -11.31,7.61 -15.31,16.61c0,0 -3,6 -6.27,7.32c-0.11952,0.05468 -0.24865,0.08526 -0.38,0.09c-1.7,0 0.76,-6.8 0.82,-7v0c3.16,-9.26 0.73,-16.67 -4.57,-16.67c-1.54487,0.07146 -3.04725,0.5287 -4.37,1.33c-0.64652,0.35627 -1.37183,0.54533 -2.11,0.55c-0.94453,0.00983 -1.85569,-0.34889 -2.54,-1c-0.93598,-0.91801 -2.19906,-1.4254 -3.51,-1.41c-5.3,0 -10.39,5.81 -14,13.74c0,0 -4.89,10 -7.47,10c-2.58,0 -1.26,-2.14 0.44,-6.87l10.08,-27.86c0.44052,-1.20785 0.26402,-2.55467 -0.47287,-3.60821c-0.73689,-1.05355 -1.94146,-1.6813 -3.22713,-1.68179h-0.22c-1.6519,0.01945 -3.12191,1.05243 -3.7,2.6l-11.13,30.58v0c-1.86424,4.6726 -6.34047,7.77879 -11.37,7.89c-4.72,0 -7.48,-3.19 -5.81,-7.89v0l5.87,-16.68c3.16,-9.25 0.73,-16.67 -4.57,-16.67z" fill="#ffffff" fill-rule="nonzero" stroke="none"></path><path transform="translate(-6.47,-40.76)" d="M0.5,82.5" fill="none" fill-rule="nonzero" stroke="#ffffff"></path><path transform="translate(-6.47,-40.76)" d="M0.5,82.5" fill="#ffffff" fill-rule="evenodd" stroke="none"></path><path transform="translate(-6.47,-40.76)" d="M1,67.5" fill="none" fill-rule="nonzero" stroke="#ffffff"></path><path transform="translate(-6.47,-40.76)" d="M1,67.5" fill="#ffffff" fill-rule="evenodd" stroke="none"></path></g></g></svg>